#!OML:ASF F:\twosubjects\two\wednesday\Session 1\rory1.ASF
:FULLY-SPECIFIED
:DEGREES
17
root 16.1892 18.7196 19.9533 -175.766 2.90058 174.423
lowerback 1.78261 1.07496 -6.83159
upperback 0.797247 1.39464 -1.14256
thorax -0.308016 0.720599 2.61975
lowerneck -13.0731 -1.11262 -2.08473
upperneck 13.5907 -0.900741 -2.28337
head 6.28097 -0.798111 -0.477478
rclavicle -7.57867e-015 2.49475e-014
rhumerus -39.247 -19.477 -73.1138
rradius 26.5875
rwrist 7.8402
rhand -14.6925 32.5457
rfingers 7.12502
rthumb 11.4613 2.87902
lclavicle -7.57867e-015 2.49475e-014
lhumerus -33.0889 0.370483 86.7604
lradius 32.6856
lwrist 5.89307
lhand -26.7288 23.1474
lfingers 7.12502
lthumb -0.158199 53.1271
rfemur -32.1008 2.77036 12.9581
rtibia 68.7835
rfoot -8.43009 0.902006
rtoes -2.38596
lfemur -11.4827 -6.51282 -30.0359
ltibia 27.1633
lfoot -13.7145 -2.27036
ltoes -2.93635
18
root 16.1983 18.694 19.8218 -175.755 2.67336 174.253
lowerback 1.81699 0.975377 -7.11446
upperback 0.861666 1.25912 -1.06845
thorax -0.254736 0.649775 2.85745
lowerneck -13.2318 -1.10612 -2.21613
upperneck 13.6719 -0.866061 -2.24109
head 6.33512 -0.786984 -0.441172
rclavicle -3.66509e-015 4.16454e-014
rhumerus -39.1666 -19.3414 -73.1218
rradius 26.6521
rwrist 7.57274
rhand -14.797 32.2216
rfingers 7.12502
rthumb 11.3605 2.54936
lclavicle -3.66509e-015 4.16454e-014
lhumerus -32.6203 0.245755 86.8181
lradius 32.8255
lwrist 5.81767
lhand -23.9452 25.4702
lfingers 7.12502
lthumb 2.53028 55.4349
rfemur -32.8382 2.8062 12.8075
rtibia 67.6832
rfoot -9.3369 0.343385
rtoes -1.6396
lfemur -10.9366 -6.37859 -30.2677
ltibia 27.0049
lfoot -13.9535 -2.56664
ltoes -3.66061
19
root 16.2061 18.6787 19.6885 -175.801 2.54758 173.998
lowerback 1.9106 0.947617 -7.33497
upperback 0.874655 1.21809 -1.15445
thorax -0.291428 0.633133 2.8911
lowerneck -13.1668 -1.10918 -1.94385
upperneck 13.7127 -0.89978 -2.42782
head 6.33443 -0.80624 -0.548193
rclavicle 1.49089e-015 9.83984e-015
rhumerus -39.2758 -19.3283 -73.205
rradius 26.5879
rwrist 7.38521
rhand -14.9432 32.7092
rfingers 7.12502
rthumb 11.2196 3.02924
lclavicle 1.49089e-015 9.83984e-015
lhumerus -32.3584 -0.317105 86.8741
lradius 33.1564
lwrist 6.7589
lhand -21.5736 27.235
lfingers 7.12502
lthumb 4.82052 57.1602
rfemur -33.4464 2.86075 12.5197
rtibia 66.3923
rfoot -10.0546 -0.100983
rtoes -0.141298
lfemur -10.3105 -6.17528 -30.6011
ltibia 26.8857
lfoot -14.2533 -2.85033
ltoes -2.67185
20
root 16.2128 18.6735 19.5554 -175.809 2.43261 173.919
lowerback 2.02773 0.955365 -7.37091
upperback 0.865356 1.2199 -1.20606
thorax -0.366336 0.638262 2.85556
lowerneck -13.1912 -1.10066 -1.7336
upperneck 13.7837 -0.918323 -2.48653
head 6.35944 -0.810127 -0.603618
rclavicle 1.38901e-014 -2.37548e-014
rhumerus -39.4352 -19.5497 -73.1581
rradius 26.5359
rwrist 7.37407
rhand -14.699 33.5764
rfingers 7.12502
rthumb 11.455 3.90938
lclavicle 1.38901e-014 -2.37548e-014
lhumerus -32.2188 -0.938733 87.0011
lradius 33.6841
lwrist 7.09662
lhand -23.118 26.491
lfingers 7.12502
lthumb 3.32917 56.4447
rfemur -34.0244 3.02719 12.4019
rtibia 64.8769
rfoot -10.4243 -0.609261
rtoes -0.00751284
lfemur -9.68 -6.22793 -30.7341
ltibia 26.6802
lfoot -14.4675 -2.91242
ltoes -1.49691
21
root 16.2224 18.669 19.4261 -175.648 2.21221 174.112
lowerback 2.03857 0.894096 -7.22848
upperback 0.75788 1.12488 -1.08581
thorax -0.47426 0.59273 2.90166
lowerneck -12.9301 -1.11945 -1.73219
upperneck 13.7069 -0.952702 -2.52288
head 6.28994 -0.829113 -0.616123
rclavicle 1.51573e-015 4.47266e-015
rhumerus -39.6536 -19.7648 -72.8984
rradius 26.5082
rwrist 7.54434
rhand -14.2162 33.815
rfingers 7.12502
rthumb 11.9207 4.17438
lclavicle 1.51573e-015 4.47266e-015
lhumerus -32.2265 -1.31241 87.1978
lradius 34.2134
lwrist 7.00234
lhand -24.0461 26.8185
lfingers 7.12502
lthumb 2.43285 56.7844
rfemur -34.6456 3.21512 12.5915
rtibia 63.1347
rfoot -10.5724 -1.40811
rtoes -1.54813
lfemur -9.22069 -6.23329 -30.5322
ltibia 26.3999
lfoot -14.6549 -3.03233
ltoes -3.17035
22
root 16.2346 18.6637 19.2952 -175.44 2.0366 174.204
lowerback 1.94451 0.769661 -7.18171
upperback 0.733153 0.961311 -0.980077
thorax -0.431514 0.507526 2.99056
lowerneck -12.8808 -1.11294 -1.8817
upperneck 13.5974 -0.925439 -2.46832
head 6.2481 -0.816755 -0.570616
rclavicle 4.33599e-015 3.57812e-015
rhumerus -39.5413 -20.0143 -72.6873
rradius 26.299
rwrist 8.03273
rhand -13.8896 34.0294
rfingers 7.12502
rthumb 12.2355 4.40728
lclavicle 4.33599e-015 3.57812e-015
lhumerus -32.0024 -1.48219 87.2761
lradius 34.5973
lwrist 7.11693
lhand -23.7027 27.7897
lfingers 7.12502
lthumb 2.76446 57.7516
rfemur -35.2309 3.42387 12.642
rtibia 61.2209
rfoot -10.8415 -2.10039
rtoes -2.34067
lfemur -8.82574 -6.06234 -30.4167
ltibia 26.1557
lfoot -15.0801 -3.06093
ltoes -5.02094
23
root 16.2433 18.6662 19.1575 -175.311 1.96382 173.94
lowerback 1.82184 0.716286 -7.49079
upperback 0.875625 0.91033 -1.00146
thorax -0.213246 0.473884 3.14522
lowerneck -13.5416 -1.10867 -2.08059
upperneck 13.827 -0.878644 -2.24502
head 6.43666 -0.788499 -0.468876
rclavicle -1.38155e-014 -9.74045e-015
rhumerus -39.1619 -20.4676 -72.5662
rradius 25.9877
rwrist 8.59564
rhand -14.0864 34.9772
rfingers 7.12502
rthumb 12.0458 5.34387
lclavicle -1.38155e-014 -9.74045e-015
lhumerus -31.4608 -1.68051 87.3186
lradius 34.9114
lwrist 7.22923
lhand -23.4902 28.0423
lfingers 7.12502
lthumb 2.96972 58.0013
rfemur -35.6527 3.62857 12.2465
rtibia 59.1402
rfoot -11.2575 -2.50377
rtoes -1.23332
lfemur -8.33265 -5.92874 -30.7216
ltibia 25.9051
lfoot -15.8631 -3.04706
ltoes -6.00252
24
root 16.249 18.6749 19.0201 -175.079 1.7766 173.852
lowerback 1.60557 0.612683 -7.63984
upperback 0.914476 0.789389 -0.903173
thorax -0.0414075 0.404623 3.33572
lowerneck -14.0741 -1.04958 -2.3131
upperneck 14.1469 -0.746234 -2.11497
head 6.6326 -0.733433 -0.382546
rclavicle -2.41026e-015 2.04748e-014
rhumerus -38.8818 -20.6476 -72.4534
rradius 25.6653
rwrist 8.86925
rhand -14.8004 35.6939
rfingers 7.12502
rthumb 11.3573 6.02146
lclavicle -2.41026e-015 2.04748e-014
lhumerus -31.1619 -1.78786 87.4833
lradius 35.2782
lwrist 7.49084
lhand -23.4349 27.2134
lfingers 7.12502
lthumb 3.02314 57.1718
rfemur -36.0478 3.77389 12.0209
rtibia 56.8945
rfoot -11.3894 -3.01348
rtoes -0.822884
lfemur -7.94378 -5.95807 -30.8298
ltibia 25.5703
lfoot -16.2925 -3.06366
ltoes -6.06258
25
root 16.2564 18.6849 18.8877 -174.818 1.5585 173.991
lowerback 1.5514 0.578784 -7.44965
upperback 0.743044 0.735524 -0.867389
thorax -0.181293 0.384177 3.26697
lowerneck -13.9366 -1.04304 -2.15053
upperneck 14.2353 -0.769025 -2.1853
head 6.63614 -0.744767 -0.433707
rclavicle -2.80783e-015 5.96354e-015
rhumerus -39.141 -20.7639 -72.3467
rradius 25.5817
rwrist 9.08605
rhand -14.8946 35.7976
rfingers 7.12502
rthumb 11.2664 6.12019
lclavicle -2.80783e-015 5.96354e-015
lhumerus -31.1605 -2.2466 87.5588
lradius 35.5235
lwrist 7.9567
lhand -23.2642 27.0237
lfingers 7.12502
lthumb 3.18795 56.9797
rfemur -36.3903 3.96837 12.0497
rtibia 54.5423
rfoot -10.8583 -3.65735
rtoes -2.73899
lfemur -7.57643 -6.00569 -30.6709
ltibia 25.1537
lfoot -16.0833 -2.97089
ltoes -5.85073
26
root 16.2676 18.6965 18.7495 -174.771 1.36201 173.967
lowerback 1.6947 0.618124 -7.43645
upperback 0.741167 0.778314 -0.931058
thorax -0.26728 0.410166 3.19123
lowerneck -14.1351 -1.13436 -1.93239
upperneck 14.3481 -0.921061 -2.21924
head 6.70457 -0.809661 -0.497084
rclavicle -2.18663e-015 -1.09332e-014
rhumerus -39.3768 -20.9143 -72.3453
rradius 25.6718
rwrist 9.1119
rhand -14.6708 35.9523
rfingers 7.12502
rthumb 11.4823 6.28673
lclavicle -2.18663e-015 -1.09332e-014
lhumerus -30.8815 -2.78652 87.5689
lradius 35.7542
lwrist 8.15305
lhand -22.0562 28.6646
lfingers 7.12502
lthumb 4.3545 58.5998
rfemur -36.3927 4.27947 11.9108
rtibia 52.0588
rfoot -11.3149 -4.16362
rtoes 1.73127
lfemur -6.88452 -6.09585 -30.7042
ltibia 24.6826
lfoot -15.9425 -2.8198
ltoes -6.3407
27
root 16.2823 18.7087 18.6074 -174.812 1.07204 173.91
lowerback 1.84736 0.474492 -7.58781
upperback 0.972103 0.585558 -0.817405
thorax -0.0947625 0.302791 3.39755
lowerneck -15.0405 -1.12621 -2.14655
upperneck 14.5663 -0.821059 -2.20208
head 6.93267 -0.775027 -0.454682
rclavicle 3.08116e-015 -2.40529e-014
rhumerus -38.9245 -20.9495 -72.4216
rradius 25.5531
rwrist 9.05437
rhand -14.5207 36.0524
rfingers 7.12502
rthumb 11.627 6.39498
lclavicle 3.08116e-015 -2.40529e-014
lhumerus -30.2943 -2.66014 87.6272
lradius 36.0571
lwrist 8.20933
lhand -21.6411 28.2401
lfingers 7.12502
lthumb 4.75532 58.1668
rfemur -36.1917 4.62063 11.696
rtibia 49.4631
rfoot -11.5614 -4.68302
rtoes 4.07286
lfemur -5.99411 -6.18555 -30.7505
ltibia 24.1239
lfoot -15.9727 -2.78185
ltoes -6.43362
